# xmcd
#
# Track frame offsets:
#	150
#	18682
#	40657
#	58582
#	77032
#	103045
#	121470
#	140557
#	164405
#	186455
#	213007
#	235130
#	261682
#	279082
#	312530
#	334805
#
# Disc length: 4654 seconds
# Revision: 4
# Processed by: cddbd v1.5.2PL0 Copyright (c) Steve Scherf et al.
# Submitted via: dBpowerAMP V12.0
#
DISCID=ee122c10
DTITLE=Gary Moore - Have Some Moore [Disc 1]
DYEAR=2002
DGENRE=Blues
TTITLE0=Still Got the Blues
TTITLE1=Separate Ways
TTITLE2=One Day
TTITLE3=Falling in Love With You
TTITLE4=Parisienne Walkways
TTITLE5=Need Your Love So Bad
TTITLE6=Empty Rooms
TTITLE7=Where in the World
TTITLE8=Crying in the Shadows
TTITLE9=Still in Love With You
TTITLE10=Midnight Blues
TTITLE11=The Loner
TTITLE12=Always Gonna Love You
TTITLE13=Like Angels
TTITLE14=Nothing's the Same
TTITLE15=Johnny Boy
EXTD=
EXTT0=
EXTT1=
EXTT2=
EXTT3=
EXTT4=
EXTT5=
EXTT6=
EXTT7=
EXTT8=
EXTT9=
EXTT10=
EXTT11=
EXTT12=
EXTT13=
EXTT14=
EXTT15=
PLAYORDER=
